<mxfile host="Electron" modified="2023-11-21T02:52:38.637Z" agent="Mozilla/5.0 (X11; Linux x86_64) AppleWebKit/537.36 (KHTML, like Gecko) draw.io/22.1.2 Chrome/114.0.5735.289 Electron/25.9.4 Safari/537.36" etag="m36cTQqRmcSK-aNSIjH6" version="22.1.2" type="device">
  <diagram name="第 1 页" id="2Qn19_mqpxw0jEWnt-hJ">
    <mxGraphModel dx="1235" dy="738" grid="1" gridSize="10" guides="1" tooltips="1" connect="1" arrows="1" fold="1" page="1" pageScale="1" pageWidth="827" pageHeight="1169" math="0" shadow="0">
      <root>
        <mxCell id="0" />
        <mxCell id="1" parent="0" />
        <mxCell id="hZWJIabNHm_s9IJWlhx2-2" value="用户" style="rounded=0;whiteSpace=wrap;html=1;" vertex="1" parent="1">
          <mxGeometry x="170" y="390" width="96" height="40" as="geometry" />
        </mxCell>
        <mxCell id="hZWJIabNHm_s9IJWlhx2-3" value="访客（未注册用户）" style="rounded=0;whiteSpace=wrap;html=1;" vertex="1" parent="1">
          <mxGeometry x="520" y="390" width="96" height="40" as="geometry" />
        </mxCell>
        <mxCell id="hZWJIabNHm_s9IJWlhx2-4" value="管理员" style="rounded=0;whiteSpace=wrap;html=1;" vertex="1" parent="1">
          <mxGeometry x="154" y="180" width="96" height="40" as="geometry" />
        </mxCell>
        <mxCell id="hZWJIabNHm_s9IJWlhx2-5" value="航班" style="whiteSpace=wrap;html=1;" vertex="1" parent="1">
          <mxGeometry x="452" y="180" width="96" height="40" as="geometry" />
        </mxCell>
        <mxCell id="hZWJIabNHm_s9IJWlhx2-6" value="注册" style="rhombus;whiteSpace=wrap;html=1;" vertex="1" parent="1">
          <mxGeometry x="354" y="395" width="60" height="30" as="geometry" />
        </mxCell>
        <mxCell id="hZWJIabNHm_s9IJWlhx2-8" value="n" style="endArrow=none;html=1;rounded=0;exitX=1;exitY=0.5;exitDx=0;exitDy=0;entryX=0;entryY=0.5;entryDx=0;entryDy=0;" edge="1" parent="1" source="hZWJIabNHm_s9IJWlhx2-6" target="hZWJIabNHm_s9IJWlhx2-3">
          <mxGeometry width="50" height="50" relative="1" as="geometry">
            <mxPoint x="430" y="390" as="sourcePoint" />
            <mxPoint x="480" y="340" as="targetPoint" />
          </mxGeometry>
        </mxCell>
        <mxCell id="hZWJIabNHm_s9IJWlhx2-9" value="1" style="endArrow=none;html=1;rounded=0;entryX=0;entryY=0.5;entryDx=0;entryDy=0;exitX=1;exitY=0.5;exitDx=0;exitDy=0;" edge="1" parent="1" source="hZWJIabNHm_s9IJWlhx2-2" target="hZWJIabNHm_s9IJWlhx2-6">
          <mxGeometry width="50" height="50" relative="1" as="geometry">
            <mxPoint x="280" y="400" as="sourcePoint" />
            <mxPoint x="330" y="350" as="targetPoint" />
          </mxGeometry>
        </mxCell>
        <mxCell id="hZWJIabNHm_s9IJWlhx2-10" value="查询" style="rhombus;whiteSpace=wrap;html=1;rotation=30;" vertex="1" parent="1">
          <mxGeometry x="250" y="297.5" width="80" height="50" as="geometry" />
        </mxCell>
        <mxCell id="hZWJIabNHm_s9IJWlhx2-11" value="查询" style="rhombus;whiteSpace=wrap;html=1;rotation=0;" vertex="1" parent="1">
          <mxGeometry x="520" y="280" width="80" height="50" as="geometry" />
        </mxCell>
        <mxCell id="hZWJIabNHm_s9IJWlhx2-13" value="n" style="endArrow=none;html=1;rounded=0;entryX=0.5;entryY=1;entryDx=0;entryDy=0;exitX=0.5;exitY=0;exitDx=0;exitDy=0;" edge="1" parent="1" source="hZWJIabNHm_s9IJWlhx2-3" target="hZWJIabNHm_s9IJWlhx2-11">
          <mxGeometry width="50" height="50" relative="1" as="geometry">
            <mxPoint x="500" y="370" as="sourcePoint" />
            <mxPoint x="550" y="320" as="targetPoint" />
          </mxGeometry>
        </mxCell>
        <mxCell id="hZWJIabNHm_s9IJWlhx2-14" value="n" style="endArrow=none;html=1;rounded=0;entryX=1;entryY=1;entryDx=0;entryDy=0;exitX=0.5;exitY=0;exitDx=0;exitDy=0;" edge="1" parent="1" source="hZWJIabNHm_s9IJWlhx2-11" target="hZWJIabNHm_s9IJWlhx2-5">
          <mxGeometry width="50" height="50" relative="1" as="geometry">
            <mxPoint x="280" y="340" as="sourcePoint" />
            <mxPoint x="330" y="290" as="targetPoint" />
          </mxGeometry>
        </mxCell>
        <mxCell id="hZWJIabNHm_s9IJWlhx2-16" value="m" style="endArrow=none;html=1;rounded=0;entryX=0.5;entryY=1;entryDx=0;entryDy=0;exitX=0.5;exitY=0;exitDx=0;exitDy=0;" edge="1" parent="1" source="hZWJIabNHm_s9IJWlhx2-2" target="hZWJIabNHm_s9IJWlhx2-10">
          <mxGeometry width="50" height="50" relative="1" as="geometry">
            <mxPoint x="110" y="410" as="sourcePoint" />
            <mxPoint x="160" y="360" as="targetPoint" />
          </mxGeometry>
        </mxCell>
        <mxCell id="hZWJIabNHm_s9IJWlhx2-17" value="n" style="endArrow=none;html=1;rounded=0;exitX=0.5;exitY=0;exitDx=0;exitDy=0;entryX=0;entryY=0.5;entryDx=0;entryDy=0;" edge="1" parent="1" source="hZWJIabNHm_s9IJWlhx2-10" target="hZWJIabNHm_s9IJWlhx2-5">
          <mxGeometry width="50" height="50" relative="1" as="geometry">
            <mxPoint x="250" y="260" as="sourcePoint" />
            <mxPoint x="300" y="210" as="targetPoint" />
          </mxGeometry>
        </mxCell>
        <mxCell id="hZWJIabNHm_s9IJWlhx2-18" value="temp_id" style="ellipse;whiteSpace=wrap;html=1;" vertex="1" parent="1">
          <mxGeometry x="680" y="385" width="60" height="50" as="geometry" />
        </mxCell>
        <mxCell id="hZWJIabNHm_s9IJWlhx2-19" value="" style="endArrow=none;html=1;rounded=0;entryX=0;entryY=0.5;entryDx=0;entryDy=0;exitX=1;exitY=0.5;exitDx=0;exitDy=0;" edge="1" parent="1" source="hZWJIabNHm_s9IJWlhx2-3" target="hZWJIabNHm_s9IJWlhx2-18">
          <mxGeometry width="50" height="50" relative="1" as="geometry">
            <mxPoint x="480" y="500" as="sourcePoint" />
            <mxPoint x="530" y="450" as="targetPoint" />
          </mxGeometry>
        </mxCell>
        <mxCell id="hZWJIabNHm_s9IJWlhx2-20" value="uid" style="ellipse;whiteSpace=wrap;html=1;" vertex="1" parent="1">
          <mxGeometry x="40" y="340" width="90" height="50" as="geometry" />
        </mxCell>
        <mxCell id="hZWJIabNHm_s9IJWlhx2-21" value="username" style="ellipse;whiteSpace=wrap;html=1;" vertex="1" parent="1">
          <mxGeometry x="40" y="425" width="90" height="50" as="geometry" />
        </mxCell>
        <mxCell id="hZWJIabNHm_s9IJWlhx2-22" value="" style="endArrow=none;html=1;rounded=0;exitX=1;exitY=0.5;exitDx=0;exitDy=0;entryX=0;entryY=0;entryDx=0;entryDy=0;" edge="1" parent="1" source="hZWJIabNHm_s9IJWlhx2-20" target="hZWJIabNHm_s9IJWlhx2-2">
          <mxGeometry width="50" height="50" relative="1" as="geometry">
            <mxPoint x="150" y="400" as="sourcePoint" />
            <mxPoint x="200" y="350" as="targetPoint" />
          </mxGeometry>
        </mxCell>
        <mxCell id="hZWJIabNHm_s9IJWlhx2-23" value="" style="endArrow=none;html=1;rounded=0;entryX=0;entryY=1;entryDx=0;entryDy=0;exitX=1;exitY=0.5;exitDx=0;exitDy=0;" edge="1" parent="1" source="hZWJIabNHm_s9IJWlhx2-21" target="hZWJIabNHm_s9IJWlhx2-2">
          <mxGeometry width="50" height="50" relative="1" as="geometry">
            <mxPoint x="120" y="510" as="sourcePoint" />
            <mxPoint x="170" y="460" as="targetPoint" />
          </mxGeometry>
        </mxCell>
        <mxCell id="hZWJIabNHm_s9IJWlhx2-24" value="起飞城市" style="ellipse;whiteSpace=wrap;html=1;" vertex="1" parent="1">
          <mxGeometry x="640" y="50" width="80" height="50" as="geometry" />
        </mxCell>
        <mxCell id="hZWJIabNHm_s9IJWlhx2-25" value="降落城市" style="ellipse;whiteSpace=wrap;html=1;" vertex="1" parent="1">
          <mxGeometry x="680" y="100" width="80" height="50" as="geometry" />
        </mxCell>
        <mxCell id="hZWJIabNHm_s9IJWlhx2-26" value="起飞机场" style="ellipse;whiteSpace=wrap;html=1;" vertex="1" parent="1">
          <mxGeometry x="536" y="30" width="80" height="50" as="geometry" />
        </mxCell>
        <mxCell id="hZWJIabNHm_s9IJWlhx2-27" value="已购数量" style="ellipse;whiteSpace=wrap;html=1;" vertex="1" parent="1">
          <mxGeometry x="300" y="50" width="80" height="50" as="geometry" />
        </mxCell>
        <mxCell id="hZWJIabNHm_s9IJWlhx2-28" value="起飞时间" style="ellipse;whiteSpace=wrap;html=1;" vertex="1" parent="1">
          <mxGeometry x="680" y="160" width="80" height="50" as="geometry" />
        </mxCell>
        <mxCell id="hZWJIabNHm_s9IJWlhx2-31" value="降落时间" style="ellipse;whiteSpace=wrap;html=1;" vertex="1" parent="1">
          <mxGeometry x="660" y="220" width="80" height="50" as="geometry" />
        </mxCell>
        <mxCell id="hZWJIabNHm_s9IJWlhx2-32" value="票价" style="ellipse;whiteSpace=wrap;html=1;" vertex="1" parent="1">
          <mxGeometry x="372" y="20" width="80" height="50" as="geometry" />
        </mxCell>
        <mxCell id="hZWJIabNHm_s9IJWlhx2-33" value="机票数量" style="ellipse;whiteSpace=wrap;html=1;" vertex="1" parent="1">
          <mxGeometry x="320" y="110" width="80" height="50" as="geometry" />
        </mxCell>
        <mxCell id="hZWJIabNHm_s9IJWlhx2-34" value="" style="endArrow=none;html=1;rounded=0;exitX=1;exitY=0.5;exitDx=0;exitDy=0;entryX=0.75;entryY=0;entryDx=0;entryDy=0;" edge="1" parent="1" source="hZWJIabNHm_s9IJWlhx2-27" target="hZWJIabNHm_s9IJWlhx2-5">
          <mxGeometry width="50" height="50" relative="1" as="geometry">
            <mxPoint x="260" y="250" as="sourcePoint" />
            <mxPoint x="460" y="150" as="targetPoint" />
          </mxGeometry>
        </mxCell>
        <mxCell id="hZWJIabNHm_s9IJWlhx2-36" value="" style="endArrow=none;html=1;rounded=0;exitX=1;exitY=0.25;exitDx=0;exitDy=0;entryX=0;entryY=0.5;entryDx=0;entryDy=0;" edge="1" parent="1" source="hZWJIabNHm_s9IJWlhx2-5" target="hZWJIabNHm_s9IJWlhx2-28">
          <mxGeometry width="50" height="50" relative="1" as="geometry">
            <mxPoint x="380" y="200" as="sourcePoint" />
            <mxPoint x="670" y="170" as="targetPoint" />
          </mxGeometry>
        </mxCell>
        <mxCell id="hZWJIabNHm_s9IJWlhx2-37" value="" style="endArrow=none;html=1;rounded=0;exitX=1;exitY=0.25;exitDx=0;exitDy=0;entryX=0;entryY=0.5;entryDx=0;entryDy=0;" edge="1" parent="1" source="hZWJIabNHm_s9IJWlhx2-5" target="hZWJIabNHm_s9IJWlhx2-31">
          <mxGeometry width="50" height="50" relative="1" as="geometry">
            <mxPoint x="620" y="330" as="sourcePoint" />
            <mxPoint x="670" y="280" as="targetPoint" />
          </mxGeometry>
        </mxCell>
        <mxCell id="hZWJIabNHm_s9IJWlhx2-38" value="" style="endArrow=none;html=1;rounded=0;exitX=1;exitY=0;exitDx=0;exitDy=0;entryX=0;entryY=0.5;entryDx=0;entryDy=0;" edge="1" parent="1" source="hZWJIabNHm_s9IJWlhx2-5" target="hZWJIabNHm_s9IJWlhx2-25">
          <mxGeometry width="50" height="50" relative="1" as="geometry">
            <mxPoint x="420" y="210" as="sourcePoint" />
            <mxPoint x="680" y="120" as="targetPoint" />
          </mxGeometry>
        </mxCell>
        <mxCell id="hZWJIabNHm_s9IJWlhx2-39" value="" style="endArrow=none;html=1;rounded=0;entryX=0;entryY=0.5;entryDx=0;entryDy=0;exitX=1;exitY=0;exitDx=0;exitDy=0;" edge="1" parent="1" source="hZWJIabNHm_s9IJWlhx2-5" target="hZWJIabNHm_s9IJWlhx2-24">
          <mxGeometry width="50" height="50" relative="1" as="geometry">
            <mxPoint x="400" y="190" as="sourcePoint" />
            <mxPoint x="450" y="140" as="targetPoint" />
          </mxGeometry>
        </mxCell>
        <mxCell id="hZWJIabNHm_s9IJWlhx2-40" value="" style="endArrow=none;html=1;rounded=0;exitX=1;exitY=0.5;exitDx=0;exitDy=0;entryX=0.75;entryY=0;entryDx=0;entryDy=0;" edge="1" parent="1" source="hZWJIabNHm_s9IJWlhx2-33" target="hZWJIabNHm_s9IJWlhx2-5">
          <mxGeometry width="50" height="50" relative="1" as="geometry">
            <mxPoint x="130" y="210" as="sourcePoint" />
            <mxPoint x="430" y="170" as="targetPoint" />
          </mxGeometry>
        </mxCell>
        <mxCell id="hZWJIabNHm_s9IJWlhx2-41" value="" style="endArrow=none;html=1;rounded=0;exitX=0.5;exitY=1;exitDx=0;exitDy=0;entryX=0.75;entryY=0;entryDx=0;entryDy=0;" edge="1" parent="1" source="hZWJIabNHm_s9IJWlhx2-32" target="hZWJIabNHm_s9IJWlhx2-5">
          <mxGeometry width="50" height="50" relative="1" as="geometry">
            <mxPoint x="100" y="220" as="sourcePoint" />
            <mxPoint x="490" y="120" as="targetPoint" />
          </mxGeometry>
        </mxCell>
        <mxCell id="hZWJIabNHm_s9IJWlhx2-42" value="" style="endArrow=none;html=1;rounded=0;exitX=0.5;exitY=1;exitDx=0;exitDy=0;entryX=0.75;entryY=0;entryDx=0;entryDy=0;" edge="1" parent="1" source="hZWJIabNHm_s9IJWlhx2-44" target="hZWJIabNHm_s9IJWlhx2-5">
          <mxGeometry width="50" height="50" relative="1" as="geometry">
            <mxPoint x="180" y="100" as="sourcePoint" />
            <mxPoint x="230" y="50" as="targetPoint" />
          </mxGeometry>
        </mxCell>
        <mxCell id="hZWJIabNHm_s9IJWlhx2-43" value="" style="endArrow=none;html=1;rounded=0;entryX=0.5;entryY=1;entryDx=0;entryDy=0;exitX=0.844;exitY=-0.004;exitDx=0;exitDy=0;exitPerimeter=0;" edge="1" parent="1" source="hZWJIabNHm_s9IJWlhx2-5" target="hZWJIabNHm_s9IJWlhx2-26">
          <mxGeometry width="50" height="50" relative="1" as="geometry">
            <mxPoint x="280" y="190" as="sourcePoint" />
            <mxPoint x="330" y="140" as="targetPoint" />
          </mxGeometry>
        </mxCell>
        <mxCell id="hZWJIabNHm_s9IJWlhx2-44" value="降落机场" style="ellipse;whiteSpace=wrap;html=1;" vertex="1" parent="1">
          <mxGeometry x="454" y="20" width="82" height="50" as="geometry" />
        </mxCell>
        <mxCell id="hZWJIabNHm_s9IJWlhx2-53" value="uid" style="ellipse;whiteSpace=wrap;html=1;" vertex="1" parent="1">
          <mxGeometry x="30" y="125" width="90" height="50" as="geometry" />
        </mxCell>
        <mxCell id="hZWJIabNHm_s9IJWlhx2-54" value="username" style="ellipse;whiteSpace=wrap;html=1;" vertex="1" parent="1">
          <mxGeometry x="30" y="212.5" width="90" height="50" as="geometry" />
        </mxCell>
        <mxCell id="hZWJIabNHm_s9IJWlhx2-55" value="" style="endArrow=none;html=1;rounded=0;exitX=1;exitY=0.5;exitDx=0;exitDy=0;entryX=0;entryY=1;entryDx=0;entryDy=0;" edge="1" parent="1" source="hZWJIabNHm_s9IJWlhx2-54" target="hZWJIabNHm_s9IJWlhx2-4">
          <mxGeometry width="50" height="50" relative="1" as="geometry">
            <mxPoint x="140" y="280" as="sourcePoint" />
            <mxPoint x="190" y="230" as="targetPoint" />
          </mxGeometry>
        </mxCell>
        <mxCell id="hZWJIabNHm_s9IJWlhx2-56" value="" style="endArrow=none;html=1;rounded=0;entryX=0;entryY=0;entryDx=0;entryDy=0;exitX=1;exitY=0.5;exitDx=0;exitDy=0;" edge="1" parent="1" source="hZWJIabNHm_s9IJWlhx2-53" target="hZWJIabNHm_s9IJWlhx2-4">
          <mxGeometry width="50" height="50" relative="1" as="geometry">
            <mxPoint x="180" y="310" as="sourcePoint" />
            <mxPoint x="230" y="260" as="targetPoint" />
          </mxGeometry>
        </mxCell>
        <mxCell id="hZWJIabNHm_s9IJWlhx2-57" value="if_admin: false" style="ellipse;whiteSpace=wrap;html=1;" vertex="1" parent="1">
          <mxGeometry x="130" y="480" width="90" height="50" as="geometry" />
        </mxCell>
        <mxCell id="hZWJIabNHm_s9IJWlhx2-58" value="" style="endArrow=none;html=1;rounded=0;entryX=0.5;entryY=1;entryDx=0;entryDy=0;exitX=0.5;exitY=0;exitDx=0;exitDy=0;" edge="1" parent="1" source="hZWJIabNHm_s9IJWlhx2-57" target="hZWJIabNHm_s9IJWlhx2-2">
          <mxGeometry width="50" height="50" relative="1" as="geometry">
            <mxPoint x="280" y="580" as="sourcePoint" />
            <mxPoint x="330" y="530" as="targetPoint" />
          </mxGeometry>
        </mxCell>
        <mxCell id="hZWJIabNHm_s9IJWlhx2-62" value="管理用户" style="rhombus;whiteSpace=wrap;html=1;rotation=5;" vertex="1" parent="1">
          <mxGeometry x="170" y="280" width="70" height="50" as="geometry" />
        </mxCell>
        <mxCell id="hZWJIabNHm_s9IJWlhx2-63" value="n" style="endArrow=none;html=1;rounded=0;entryX=0.5;entryY=1;entryDx=0;entryDy=0;exitX=0.25;exitY=0;exitDx=0;exitDy=0;" edge="1" parent="1" source="hZWJIabNHm_s9IJWlhx2-2" target="hZWJIabNHm_s9IJWlhx2-62">
          <mxGeometry width="50" height="50" relative="1" as="geometry">
            <mxPoint x="180" y="370" as="sourcePoint" />
            <mxPoint x="230" y="320" as="targetPoint" />
          </mxGeometry>
        </mxCell>
        <mxCell id="hZWJIabNHm_s9IJWlhx2-64" value="m" style="endArrow=none;html=1;rounded=0;entryX=0.75;entryY=1;entryDx=0;entryDy=0;exitX=0.5;exitY=0;exitDx=0;exitDy=0;" edge="1" parent="1" source="hZWJIabNHm_s9IJWlhx2-62" target="hZWJIabNHm_s9IJWlhx2-4">
          <mxGeometry width="50" height="50" relative="1" as="geometry">
            <mxPoint x="250" y="300" as="sourcePoint" />
            <mxPoint x="300" y="250" as="targetPoint" />
          </mxGeometry>
        </mxCell>
        <mxCell id="hZWJIabNHm_s9IJWlhx2-65" value="订票" style="rhombus;whiteSpace=wrap;html=1;rotation=50;" vertex="1" parent="1">
          <mxGeometry x="354" y="312.5" width="80" height="50" as="geometry" />
        </mxCell>
        <mxCell id="hZWJIabNHm_s9IJWlhx2-66" value="m" style="endArrow=none;html=1;rounded=0;entryX=0.5;entryY=1;entryDx=0;entryDy=0;exitX=1;exitY=0;exitDx=0;exitDy=0;" edge="1" parent="1" source="hZWJIabNHm_s9IJWlhx2-2" target="hZWJIabNHm_s9IJWlhx2-65">
          <mxGeometry width="50" height="50" relative="1" as="geometry">
            <mxPoint x="310" y="400" as="sourcePoint" />
            <mxPoint x="360" y="350" as="targetPoint" />
          </mxGeometry>
        </mxCell>
        <mxCell id="hZWJIabNHm_s9IJWlhx2-67" value="n" style="endArrow=none;html=1;rounded=0;entryX=0.25;entryY=1;entryDx=0;entryDy=0;exitX=0.5;exitY=0;exitDx=0;exitDy=0;" edge="1" parent="1" source="hZWJIabNHm_s9IJWlhx2-65" target="hZWJIabNHm_s9IJWlhx2-5">
          <mxGeometry width="50" height="50" relative="1" as="geometry">
            <mxPoint x="380" y="295" as="sourcePoint" />
            <mxPoint x="487" y="260" as="targetPoint" />
          </mxGeometry>
        </mxCell>
        <mxCell id="hZWJIabNHm_s9IJWlhx2-68" value="管理航班" style="rhombus;whiteSpace=wrap;html=1;" vertex="1" parent="1">
          <mxGeometry x="300" y="175" width="80" height="50" as="geometry" />
        </mxCell>
        <mxCell id="hZWJIabNHm_s9IJWlhx2-70" value="m" style="endArrow=none;html=1;rounded=0;entryX=0;entryY=0.5;entryDx=0;entryDy=0;exitX=1;exitY=0.5;exitDx=0;exitDy=0;" edge="1" parent="1" source="hZWJIabNHm_s9IJWlhx2-4" target="hZWJIabNHm_s9IJWlhx2-68">
          <mxGeometry width="50" height="50" relative="1" as="geometry">
            <mxPoint x="210" y="180" as="sourcePoint" />
            <mxPoint x="260" y="130" as="targetPoint" />
          </mxGeometry>
        </mxCell>
        <mxCell id="hZWJIabNHm_s9IJWlhx2-71" value="m" style="endArrow=none;html=1;rounded=0;entryX=0;entryY=0.5;entryDx=0;entryDy=0;exitX=1;exitY=0.5;exitDx=0;exitDy=0;" edge="1" parent="1" source="hZWJIabNHm_s9IJWlhx2-68" target="hZWJIabNHm_s9IJWlhx2-5">
          <mxGeometry width="50" height="50" relative="1" as="geometry">
            <mxPoint x="359" y="250" as="sourcePoint" />
            <mxPoint x="409" y="200" as="targetPoint" />
          </mxGeometry>
        </mxCell>
        <mxCell id="hZWJIabNHm_s9IJWlhx2-72" value="if_admin: true" style="ellipse;whiteSpace=wrap;html=1;" vertex="1" parent="1">
          <mxGeometry x="130" y="75" width="90" height="50" as="geometry" />
        </mxCell>
        <mxCell id="hZWJIabNHm_s9IJWlhx2-73" value="" style="endArrow=none;html=1;rounded=0;entryX=0.5;entryY=0;entryDx=0;entryDy=0;exitX=0.5;exitY=1;exitDx=0;exitDy=0;exitPerimeter=0;" edge="1" parent="1" source="hZWJIabNHm_s9IJWlhx2-72" target="hZWJIabNHm_s9IJWlhx2-4">
          <mxGeometry width="50" height="50" relative="1" as="geometry">
            <mxPoint x="302" y="100" as="sourcePoint" />
            <mxPoint x="202" y="170" as="targetPoint" />
          </mxGeometry>
        </mxCell>
      </root>
    </mxGraphModel>
  </diagram>
</mxfile>
